<?xml version="1.0" encoding="UTF-8" standalone="no"?>
<svg
   xmlns:dc="http://purl.org/dc/elements/1.1/"
   xmlns:cc="http://creativecommons.org/ns#"
   xmlns:rdf="http://www.w3.org/1999/02/22-rdf-syntax-ns#"
   xmlns:svg="http://www.w3.org/2000/svg"
   xmlns="http://www.w3.org/2000/svg"
   viewBox="0 0 836.7832 672.55658"
   height="672.55658"
   width="836.7832"
   xml:space="preserve"
   id="svg2"
   version="1.1"><metadata
     id="metadata8"><rdf:RDF><cc:Work
         rdf:about=""><dc:format>image/svg+xml</dc:format><dc:type
           rdf:resource="http://purl.org/dc/dcmitype/StillImage" /></cc:Work></rdf:RDF></metadata><defs
     id="defs6"><clipPath
       id="clipPath22"
       clipPathUnits="userSpaceOnUse"><path
         id="path20"
         d="M 58.887403,58.83742 H 616.8874 v 434.88 H 58.887403 Z" /></clipPath><clipPath
       id="clipPath44"
       clipPathUnits="userSpaceOnUse"><path
         id="path42"
         d="M 58.887403,58.83742 H 616.8874 v 434.88 H 58.887403 Z" /></clipPath><clipPath
       id="clipPath66"
       clipPathUnits="userSpaceOnUse"><path
         id="path64"
         d="M 58.887403,58.83742 H 616.8874 v 434.88 H 58.887403 Z" /></clipPath><clipPath
       id="clipPath84"
       clipPathUnits="userSpaceOnUse"><path
         id="path82"
         d="M 58.887403,58.83742 H 616.8874 v 434.88 H 58.887403 Z" /></clipPath><clipPath
       id="clipPath102"
       clipPathUnits="userSpaceOnUse"><path
         id="path100"
         d="M 58.887403,58.83742 H 616.8874 v 434.88 H 58.887403 Z" /></clipPath><clipPath
       id="clipPath160"
       clipPathUnits="userSpaceOnUse"><path
         id="path158"
         d="M 58.887403,58.83742 H 616.8874 v 434.88 H 58.887403 Z" /></clipPath><clipPath
       id="clipPath178"
       clipPathUnits="userSpaceOnUse"><path
         id="path176"
         d="M 58.887403,58.83742 H 616.8874 v 434.88 H 58.887403 Z" /></clipPath><clipPath
       id="clipPath196"
       clipPathUnits="userSpaceOnUse"><path
         id="path194"
         d="M 58.887403,58.83742 H 616.8874 v 434.88 H 58.887403 Z" /></clipPath><clipPath
       id="clipPath214"
       clipPathUnits="userSpaceOnUse"><path
         id="path212"
         d="M 58.887403,58.83742 H 616.8874 v 434.88 H 58.887403 Z" /></clipPath><clipPath
       id="clipPath232"
       clipPathUnits="userSpaceOnUse"><path
         id="path230"
         d="M 58.887403,58.83742 H 616.8874 v 434.88 H 58.887403 Z" /></clipPath><clipPath
       id="clipPath266"
       clipPathUnits="userSpaceOnUse"><path
         id="path264"
         d="M 58.887403,58.83742 H 616.8874 v 434.88 H 58.887403 Z" /></clipPath><clipPath
       id="clipPath276"
       clipPathUnits="userSpaceOnUse"><path
         id="path274"
         d="M 58.887403,58.83742 H 616.8874 v 434.88 H 58.887403 Z" /></clipPath><clipPath
       id="clipPath286"
       clipPathUnits="userSpaceOnUse"><path
         id="path284"
         d="M 58.887403,58.83742 H 616.8874 v 434.88 H 58.887403 Z" /></clipPath><clipPath
       id="clipPath296"
       clipPathUnits="userSpaceOnUse"><path
         id="path294"
         d="M 58.887403,58.83742 H 616.8874 v 434.88 H 58.887403 Z" /></clipPath><clipPath
       id="clipPath306"
       clipPathUnits="userSpaceOnUse"><path
         id="path304"
         d="M 58.887403,58.83742 H 616.8874 v 434.88 H 58.887403 Z" /></clipPath><clipPath
       id="clipPath316"
       clipPathUnits="userSpaceOnUse"><path
         id="path314"
         d="M 58.887403,58.83742 H 616.8874 v 434.88 H 58.887403 Z" /></clipPath><clipPath
       id="clipPath446"
       clipPathUnits="userSpaceOnUse"><path
         id="path444"
         d="M 99.927403,274.83742 H 284.2474 v 184.32 H 99.927403 Z" /></clipPath><clipPath
       id="clipPath456"
       clipPathUnits="userSpaceOnUse"><path
         id="path454"
         d="M 99.927403,274.83742 H 284.2474 v 184.32 H 99.927403 Z" /></clipPath><clipPath
       id="clipPath466"
       clipPathUnits="userSpaceOnUse"><path
         id="path464"
         d="M 99.927403,274.83742 H 284.2474 v 184.32 H 99.927403 Z" /></clipPath><clipPath
       id="clipPath476"
       clipPathUnits="userSpaceOnUse"><path
         id="path474"
         d="M 99.927403,274.83742 H 284.2474 v 184.32 H 99.927403 Z" /></clipPath><clipPath
       id="clipPath486"
       clipPathUnits="userSpaceOnUse"><path
         id="path484"
         d="M 99.927403,274.83742 H 284.2474 v 184.32 H 99.927403 Z" /></clipPath><clipPath
       id="clipPath496"
       clipPathUnits="userSpaceOnUse"><path
         id="path494"
         d="M 99.927403,274.83742 H 284.2474 v 184.32 H 99.927403 Z" /></clipPath><clipPath
       id="clipPath506"
       clipPathUnits="userSpaceOnUse"><path
         id="path504"
         d="M 99.927403,274.83742 H 284.2474 v 184.32 H 99.927403 Z" /></clipPath><clipPath
       id="clipPath516"
       clipPathUnits="userSpaceOnUse"><path
         id="path514"
         d="M 99.927403,274.83742 H 284.2474 v 184.32 H 99.927403 Z" /></clipPath><clipPath
       id="clipPath526"
       clipPathUnits="userSpaceOnUse"><path
         id="path524"
         d="M 99.927403,274.83742 H 284.2474 v 184.32 H 99.927403 Z" /></clipPath><clipPath
       id="clipPath536"
       clipPathUnits="userSpaceOnUse"><path
         id="path534"
         d="M 99.927403,274.83742 H 284.2474 v 184.32 H 99.927403 Z" /></clipPath></defs><g
     transform="matrix(1.3333333,0,0,-1.3333333,0,672.55656)"
     id="g10"><path
       id="path12"
       style="fill:#ffffff;fill-opacity:1;fill-rule:nonzero;stroke:none"
       d="M 0,0 H 627.5874 V 504.41742 H 0 Z" /><path
       id="path14"
       style="fill:#ffffff;fill-opacity:1;fill-rule:nonzero;stroke:none"
       d="M 58.887403,58.83742 H 616.8874 v 434.88 H 58.887403 Z" /><g
       id="g16"><g
         clip-path="url(#clipPath22)"
         id="g18"><path
           id="path24"
           style="fill:none;stroke:#b0b0b0;stroke-width:0.80000001;stroke-linecap:square;stroke-linejoin:round;stroke-miterlimit:10;stroke-dasharray:none;stroke-opacity:1"
           d="m 107.30889,58.83742 v 434.88" /></g></g><g
       id="g26"><path
         id="path28"
         style="fill:#000000;fill-opacity:1;fill-rule:nonzero;stroke:#000000;stroke-width:0.80000001;stroke-linecap:butt;stroke-linejoin:round;stroke-miterlimit:10;stroke-dasharray:none;stroke-opacity:1"
         d="m 107.30889,58.83742 v -3.5" /><text
         id="text32"
         style="font-style:italic;font-variant:normal;font-weight:normal;font-size:20.76213837px;font-family:CMSY10;-inkscape-font-specification:CMSY10;writing-mode:lr-tb;fill:#000000;fill-opacity:1;fill-rule:nonzero;stroke:none"
         transform="matrix(1,0,0,-1,86.66142,37.580945)"><tspan
           id="tspan30"
           y="0"
           x="0">−</tspan></text>
<text
         id="text36"
         style="font-variant:normal;font-size:19.92527962px;font-family:URWPalladioL-Roma;-inkscape-font-specification:URWPalladioL-Roma;writing-mode:lr-tb;fill:#000000;fill-opacity:1;fill-rule:nonzero;stroke:none"
         transform="matrix(1,0,0,-1,103.04976,37.580945)"><tspan
           id="tspan34"
           y="0"
           x="0 9.9626398 14.94396">1.0</tspan></text>
</g><g
       id="g38"><g
         clip-path="url(#clipPath44)"
         id="g40"><path
           id="path46"
           style="fill:none;stroke:#b0b0b0;stroke-width:0.80000001;stroke-linecap:square;stroke-linejoin:round;stroke-miterlimit:10;stroke-dasharray:none;stroke-opacity:1"
           d="m 222.59815,58.83742 v 434.88" /></g></g><g
       id="g48"><path
         id="path50"
         style="fill:#000000;fill-opacity:1;fill-rule:nonzero;stroke:#000000;stroke-width:0.80000001;stroke-linecap:butt;stroke-linejoin:round;stroke-miterlimit:10;stroke-dasharray:none;stroke-opacity:1"
         d="m 222.59815,58.83742 v -3.5" /><text
         id="text54"
         style="font-style:italic;font-variant:normal;font-weight:normal;font-size:20.76213837px;font-family:CMSY10;-inkscape-font-specification:CMSY10;writing-mode:lr-tb;fill:#000000;fill-opacity:1;fill-rule:nonzero;stroke:none"
         transform="matrix(1,0,0,-1,201.95068,37.580945)"><tspan
           id="tspan52"
           y="0"
           x="0">−</tspan></text>
<text
         id="text58"
         style="font-variant:normal;font-size:19.92527962px;font-family:URWPalladioL-Roma;-inkscape-font-specification:URWPalladioL-Roma;writing-mode:lr-tb;fill:#000000;fill-opacity:1;fill-rule:nonzero;stroke:none"
         transform="matrix(1,0,0,-1,218.33902,37.580945)"><tspan
           id="tspan56"
           y="0"
           x="0 9.9626398 14.94396">0.5</tspan></text>
</g><g
       id="g60"><g
         clip-path="url(#clipPath66)"
         id="g62"><path
           id="path68"
           style="fill:none;stroke:#b0b0b0;stroke-width:0.80000001;stroke-linecap:square;stroke-linejoin:round;stroke-miterlimit:10;stroke-dasharray:none;stroke-opacity:1"
           d="m 337.8874,58.83742 v 434.88" /></g></g><g
       id="g70"><path
         id="path72"
         style="fill:#000000;fill-opacity:1;fill-rule:nonzero;stroke:#000000;stroke-width:0.80000001;stroke-linecap:butt;stroke-linejoin:round;stroke-miterlimit:10;stroke-dasharray:none;stroke-opacity:1"
         d="m 337.8874,58.83742 v -3.5" /><text
         id="text76"
         style="font-variant:normal;font-size:19.92527962px;font-family:URWPalladioL-Roma;-inkscape-font-specification:URWPalladioL-Roma;writing-mode:lr-tb;fill:#000000;fill-opacity:1;fill-rule:nonzero;stroke:none"
         transform="matrix(1,0,0,-1,325.4341,37.580945)"><tspan
           id="tspan74"
           y="0"
           x="0 9.9626398 14.94396">0.0</tspan></text>
</g><g
       id="g78"><g
         clip-path="url(#clipPath84)"
         id="g80"><path
           id="path86"
           style="fill:none;stroke:#b0b0b0;stroke-width:0.80000001;stroke-linecap:square;stroke-linejoin:round;stroke-miterlimit:10;stroke-dasharray:none;stroke-opacity:1"
           d="m 453.17666,58.83742 v 434.88" /></g></g><g
       id="g88"><path
         id="path90"
         style="fill:#000000;fill-opacity:1;fill-rule:nonzero;stroke:#000000;stroke-width:0.80000001;stroke-linecap:butt;stroke-linejoin:round;stroke-miterlimit:10;stroke-dasharray:none;stroke-opacity:1"
         d="m 453.17666,58.83742 v -3.5" /><text
         id="text94"
         style="font-variant:normal;font-size:19.92527962px;font-family:URWPalladioL-Roma;-inkscape-font-specification:URWPalladioL-Roma;writing-mode:lr-tb;fill:#000000;fill-opacity:1;fill-rule:nonzero;stroke:none"
         transform="matrix(1,0,0,-1,440.72336,37.580945)"><tspan
           id="tspan92"
           y="0"
           x="0 9.9626398 14.94396">0.5</tspan></text>
</g><g
       id="g96"><g
         clip-path="url(#clipPath102)"
         id="g98"><path
           id="path104"
           style="fill:none;stroke:#b0b0b0;stroke-width:0.80000001;stroke-linecap:square;stroke-linejoin:round;stroke-miterlimit:10;stroke-dasharray:none;stroke-opacity:1"
           d="m 568.46592,58.83742 v 434.88" /></g></g><g
       id="g106"><path
         id="path108"
         style="fill:#000000;fill-opacity:1;fill-rule:nonzero;stroke:#000000;stroke-width:0.80000001;stroke-linecap:butt;stroke-linejoin:round;stroke-miterlimit:10;stroke-dasharray:none;stroke-opacity:1"
         d="m 568.46592,58.83742 v -3.5" /><text
         id="text112"
         style="font-variant:normal;font-size:19.92527962px;font-family:URWPalladioL-Roma;-inkscape-font-specification:URWPalladioL-Roma;writing-mode:lr-tb;fill:#000000;fill-opacity:1;fill-rule:nonzero;stroke:none"
         transform="matrix(1,0,0,-1,556.01262,37.580945)"><tspan
           id="tspan110"
           y="0"
           x="0 9.9626398 14.94396">1.0</tspan></text>
<text
         id="text116"
         style="font-style:italic;font-variant:normal;font-size:19.92527962px;font-family:PazoMath;-inkscape-font-specification:PazoMath-Italic;writing-mode:lr-tb;fill:#000000;fill-opacity:1;fill-rule:nonzero;stroke:none"
         transform="matrix(1,0,0,-1,271.84384,16.435964)"><tspan
           id="tspan114"
           y="0"
           x="0">τ</tspan></text>
<text
         id="text120"
         style="font-variant:normal;font-weight:normal;font-size:20.76213837px;font-family:CMR10;-inkscape-font-specification:CMR10;writing-mode:lr-tb;fill:#000000;fill-opacity:1;fill-rule:nonzero;stroke:none"
         transform="matrix(1,0,0,-1,288.81547,16.435964)"><tspan
           id="tspan118"
           y="0"
           x="0 22.155933">=(</tspan></text>
<text
         id="text124"
         style="font-style:italic;font-variant:normal;font-size:19.92527962px;font-family:URWPalladioL-Ital;-inkscape-font-specification:URWPalladioL-Ital;writing-mode:lr-tb;fill:#000000;fill-opacity:1;fill-rule:nonzero;stroke:none"
         transform="matrix(1,0,0,-1,319.53554,16.435964)"><tspan
           id="tspan122"
           y="0"
           x="0">t</tspan></text>
<text
         id="text128"
         style="font-style:italic;font-variant:normal;font-weight:normal;font-size:20.76213837px;font-family:CMSY10;-inkscape-font-specification:CMSY10;writing-mode:lr-tb;fill:#000000;fill-opacity:1;fill-rule:nonzero;stroke:none"
         transform="matrix(1,0,0,-1,330.54291,16.435964)"><tspan
           id="tspan126"
           y="0"
           x="0">−</tspan></text>
<text
         id="text132"
         style="font-style:italic;font-variant:normal;font-size:19.92527962px;font-family:URWPalladioL-Ital;-inkscape-font-specification:URWPalladioL-Ital;writing-mode:lr-tb;fill:#000000;fill-opacity:1;fill-rule:nonzero;stroke:none"
         transform="matrix(1,0,0,-1,351.05461,16.435964)"><tspan
           id="tspan130"
           y="0"
           x="0">t</tspan></text>
<text
         id="text136"
         style="font-variant:normal;font-size:15.1431036px;font-family:URWPalladioL-Roma;-inkscape-font-specification:URWPalladioL-Roma;writing-mode:lr-tb;fill:#000000;fill-opacity:1;fill-rule:nonzero;stroke:none"
         transform="matrix(1,0,0,-1,357.93862,12.947688)"><tspan
           id="tspan134"
           y="0"
           x="0">0</tspan></text>
<text
         id="text140"
         style="font-variant:normal;font-weight:normal;font-size:20.76213837px;font-family:CMR10;-inkscape-font-specification:CMR10;writing-mode:lr-tb;fill:#000000;fill-opacity:1;fill-rule:nonzero;stroke:none"
         transform="matrix(1,0,0,-1,366.25735,16.435964)"><tspan
           id="tspan138"
           y="0"
           x="0">)</tspan></text>
<text
         id="text144"
         style="font-variant:normal;font-size:19.92527962px;font-family:URWPalladioL-Roma;-inkscape-font-specification:URWPalladioL-Roma;writing-mode:lr-tb;fill:#000000;fill-opacity:1;fill-rule:nonzero;stroke:none"
         transform="matrix(1,0,0,-1,374.80528,16.435964)"><tspan
           id="tspan142"
           y="0"
           x="0">/</tspan></text>
<text
         id="text148"
         style="font-style:italic;font-variant:normal;font-size:19.92527962px;font-family:URWPalladioL-Ital;-inkscape-font-specification:URWPalladioL-Ital;writing-mode:lr-tb;fill:#000000;fill-opacity:1;fill-rule:nonzero;stroke:none"
         transform="matrix(1,0,0,-1,387.37811,16.435964)"><tspan
           id="tspan146"
           y="0"
           x="0">t</tspan></text>
<text
         id="text152"
         style="font-style:italic;font-variant:normal;font-size:15.1431036px;font-family:URWPalladioL-Ital;-inkscape-font-specification:URWPalladioL-Ital;writing-mode:lr-tb;fill:#000000;fill-opacity:1;fill-rule:nonzero;stroke:none"
         transform="matrix(1,0,0,-1,394.67856,12.818822)"><tspan
           id="tspan150"
           y="0"
           x="0">E</tspan></text>
</g><g
       id="g154"><g
         clip-path="url(#clipPath160)"
         id="g156"><path
           id="path162"
           style="fill:none;stroke:#b0b0b0;stroke-width:0.80000001;stroke-linecap:square;stroke-linejoin:round;stroke-miterlimit:10;stroke-dasharray:none;stroke-opacity:1"
           d="M 58.887403,117.56657 H 616.8874" /></g></g><g
       id="g164"><path
         id="path166"
         style="fill:#000000;fill-opacity:1;fill-rule:nonzero;stroke:#000000;stroke-width:0.80000001;stroke-linecap:butt;stroke-linejoin:round;stroke-miterlimit:10;stroke-dasharray:none;stroke-opacity:1"
         d="m 58.887403,117.56657 h -3.5" /><text
         id="text170"
         style="font-variant:normal;font-size:19.92527962px;font-family:URWPalladioL-Roma;-inkscape-font-specification:URWPalladioL-Roma;writing-mode:lr-tb;fill:#000000;fill-opacity:1;fill-rule:nonzero;stroke:none"
         transform="matrix(1,0,0,-1,41.924763,110.43833)"><tspan
           id="tspan168"
           y="0"
           x="0">2</tspan></text>
</g><g
       id="g172"><g
         clip-path="url(#clipPath178)"
         id="g174"><path
           id="path180"
           style="fill:none;stroke:#b0b0b0;stroke-width:0.80000001;stroke-linecap:square;stroke-linejoin:round;stroke-miterlimit:10;stroke-dasharray:none;stroke-opacity:1"
           d="M 58.887403,206.25387 H 616.8874" /></g></g><g
       id="g182"><path
         id="path184"
         style="fill:#000000;fill-opacity:1;fill-rule:nonzero;stroke:#000000;stroke-width:0.80000001;stroke-linecap:butt;stroke-linejoin:round;stroke-miterlimit:10;stroke-dasharray:none;stroke-opacity:1"
         d="m 58.887403,206.25387 h -3.5" /><text
         id="text188"
         style="font-variant:normal;font-size:19.92527962px;font-family:URWPalladioL-Roma;-inkscape-font-specification:URWPalladioL-Roma;writing-mode:lr-tb;fill:#000000;fill-opacity:1;fill-rule:nonzero;stroke:none"
         transform="matrix(1,0,0,-1,41.924763,199.12563)"><tspan
           id="tspan186"
           y="0"
           x="0">4</tspan></text>
</g><g
       id="g190"><g
         clip-path="url(#clipPath196)"
         id="g192"><path
           id="path198"
           style="fill:none;stroke:#b0b0b0;stroke-width:0.80000001;stroke-linecap:square;stroke-linejoin:round;stroke-miterlimit:10;stroke-dasharray:none;stroke-opacity:1"
           d="M 58.887403,294.94117 H 616.8874" /></g></g><g
       id="g200"><path
         id="path202"
         style="fill:#000000;fill-opacity:1;fill-rule:nonzero;stroke:#000000;stroke-width:0.80000001;stroke-linecap:butt;stroke-linejoin:round;stroke-miterlimit:10;stroke-dasharray:none;stroke-opacity:1"
         d="m 58.887403,294.94117 h -3.5" /><text
         id="text206"
         style="font-variant:normal;font-size:19.92527962px;font-family:URWPalladioL-Roma;-inkscape-font-specification:URWPalladioL-Roma;writing-mode:lr-tb;fill:#000000;fill-opacity:1;fill-rule:nonzero;stroke:none"
         transform="matrix(1,0,0,-1,41.924763,287.81293)"><tspan
           id="tspan204"
           y="0"
           x="0">6</tspan></text>
</g><g
       id="g208"><g
         clip-path="url(#clipPath214)"
         id="g210"><path
           id="path216"
           style="fill:none;stroke:#b0b0b0;stroke-width:0.80000001;stroke-linecap:square;stroke-linejoin:round;stroke-miterlimit:10;stroke-dasharray:none;stroke-opacity:1"
           d="M 58.887403,383.62847 H 616.8874" /></g></g><g
       id="g218"><path
         id="path220"
         style="fill:#000000;fill-opacity:1;fill-rule:nonzero;stroke:#000000;stroke-width:0.80000001;stroke-linecap:butt;stroke-linejoin:round;stroke-miterlimit:10;stroke-dasharray:none;stroke-opacity:1"
         d="m 58.887403,383.62847 h -3.5" /><text
         id="text224"
         style="font-variant:normal;font-size:19.92527962px;font-family:URWPalladioL-Roma;-inkscape-font-specification:URWPalladioL-Roma;writing-mode:lr-tb;fill:#000000;fill-opacity:1;fill-rule:nonzero;stroke:none"
         transform="matrix(1,0,0,-1,41.924763,376.50023)"><tspan
           id="tspan222"
           y="0"
           x="0">8</tspan></text>
</g><g
       id="g226"><g
         clip-path="url(#clipPath232)"
         id="g228"><path
           id="path234"
           style="fill:none;stroke:#b0b0b0;stroke-width:0.80000001;stroke-linecap:square;stroke-linejoin:round;stroke-miterlimit:10;stroke-dasharray:none;stroke-opacity:1"
           d="M 58.887403,472.31577 H 616.8874" /></g></g><g
       id="g236"><path
         id="path238"
         style="fill:#000000;fill-opacity:1;fill-rule:nonzero;stroke:#000000;stroke-width:0.80000001;stroke-linecap:butt;stroke-linejoin:round;stroke-miterlimit:10;stroke-dasharray:none;stroke-opacity:1"
         d="m 58.887403,472.31577 h -3.5" /><text
         id="text242"
         style="font-variant:normal;font-size:19.92527962px;font-family:URWPalladioL-Roma;-inkscape-font-specification:URWPalladioL-Roma;writing-mode:lr-tb;fill:#000000;fill-opacity:1;fill-rule:nonzero;stroke:none"
         transform="matrix(1,0,0,-1,31.962123,465.18753)"><tspan
           id="tspan240"
           y="0"
           x="0 9.9626398">10</tspan></text>
<text
         id="text246"
         style="font-style:italic;font-variant:normal;font-size:19.92527962px;font-family:URWPalladioL-Ital;-inkscape-font-specification:URWPalladioL-Ital;writing-mode:lr-tb;fill:#000000;fill-opacity:1;fill-rule:nonzero;stroke:none"
         transform="matrix(0,1,1,0,22.343301,254.73599)"><tspan
           id="tspan244"
           y="0"
           x="0">A</tspan></text>
<text
         id="text250"
         style="font-variant:normal;font-weight:normal;font-size:20.76213837px;font-family:CMR10;-inkscape-font-specification:CMR10;writing-mode:lr-tb;fill:#000000;fill-opacity:1;fill-rule:nonzero;stroke:none"
         transform="matrix(0,1,1,0,22.343301,269.62015)"><tspan
           id="tspan248"
           y="0"
           x="0">(</tspan></text>
<text
         id="text254"
         style="font-style:italic;font-variant:normal;font-size:19.92527962px;font-family:URWPalladioL-Ital;-inkscape-font-specification:URWPalladioL-Ital;writing-mode:lr-tb;fill:#000000;fill-opacity:1;fill-rule:nonzero;stroke:none"
         transform="matrix(0,1,1,0,22.343301,278.16808)"><tspan
           id="tspan252"
           y="0"
           x="0">u</tspan></text>
<text
         id="text258"
         style="font-variant:normal;font-weight:normal;font-size:20.76213837px;font-family:CMR10;-inkscape-font-specification:CMR10;writing-mode:lr-tb;fill:#000000;fill-opacity:1;fill-rule:nonzero;stroke:none"
         transform="matrix(0,1,1,0,22.343301,289.74466)"><tspan
           id="tspan256"
           y="0"
           x="0">)</tspan></text>
</g><g
       id="g260"><g
         clip-path="url(#clipPath266)"
         id="g262"><path
           id="path268"
           style="fill:none;stroke:#1f77b4;stroke-width:1.5;stroke-linecap:square;stroke-linejoin:round;stroke-miterlimit:10;stroke-dasharray:none;stroke-opacity:1"
           d="m 84.25104,85.460465 13.710073,1.554411 12.694517,1.661334 11.67895,1.752543 10.66339,1.821458 10.15561,1.96516 9.14005,1.992722 8.63227,2.108193 8.12448,2.215874 7.61671,2.31219 7.10893,2.39312 6.60115,2.45424 6.09336,2.49083 6.09337,2.73621 5.58558,2.75205 5.07781,2.73018 5.0778,2.97466 5.07781,3.2496 4.57002,3.18898 4.57003,3.47054 4.06224,3.34943 4.06225,3.62777 4.06224,3.9387 3.55446,3.73086 3.55447,4.02657 3.55446,4.35533 3.55446,4.72195 3.55447,5.13206 3.04668,4.76314 3.04668,5.13726 3.04669,5.55234 3.04668,6.01394 3.04668,6.52847 3.04669,7.10318 3.04668,7.74636 3.04668,8.46717 2.5389,7.66959 2.53891,8.28728 2.5389,8.96654 2.5389,9.71216 2.53891,10.528 2.5389,11.41603 2.5389,12.37486 2.5389,13.39748 2.5389,14.468 3.04669,18.79758 3.04668,20.29661 3.55446,25.23919 7.61671,54.86719 2.03112,12.93211 1.52335,8.61398 1.52334,7.4124 1.01556,4.15761 1.01556,3.45611 1.01556,2.69971 1.01556,1.89876 0.50778,0.63844 0.50778,0.42717 0.50778,0.21406 h 0.50778 l 0.50778,-0.21406 0.50778,-0.42717 0.50779,-0.63844 1.01556,-1.89876 1.01556,-2.69971 1.01556,-3.45611 1.01556,-4.15761 1.52334,-7.4124 1.52334,-8.61398 2.03112,-12.93211 2.53891,-17.7085 10.15561,-72.72361 3.04668,-19.56434 3.04668,-18.01526 2.53891,-13.82122 2.5389,-12.7769 2.5389,-11.79131 2.5389,-10.87453 2.53891,-10.0299 2.5389,-9.25658 2.5389,-8.55131 3.04668,-9.41976 3.04669,-8.59557 3.04668,-7.86083 3.04668,-7.20539 3.04669,-6.61986 3.04668,-6.09584 3.04668,-5.62588 3.04668,-5.20346 3.55447,-5.59232 3.55446,-5.13206 3.55447,-4.72195 3.55446,-4.35533 3.55446,-4.02657 4.06225,-4.24144 4.06224,-3.89788 4.06224,-3.59129 4.06225,-3.31671 4.57002,-3.43762 4.57003,-3.15964 5.0778,-3.2206 5.07781,-2.94891 5.58558,-2.9657 5.58559,-2.7074 6.09337,-2.69315 6.09336,-2.4528 6.60115,-2.41789 7.10893,-2.35875 7.6167,-2.27999 8.12449,-2.185973 8.63227,-2.080626 9.14005,-1.967465 9.64783,-1.849531 10.66339,-1.810585 11.17117,-1.67136 12.18673,-1.59924 13.2023,-1.508986 1.01556,-0.107519 v 0" /></g></g><g
       id="g270"><g
         clip-path="url(#clipPath276)"
         id="g272"><path
           id="path278"
           style="fill:none;stroke:#ff7f0e;stroke-width:1.5;stroke-linecap:square;stroke-linejoin:round;stroke-miterlimit:10;stroke-dasharray:none;stroke-opacity:1"
           d="m 84.25104,84.628098 15.233415,1.538 13.710075,1.599792 12.69451,1.69593 11.67895,1.772893 11.17117,1.91668 10.15561,1.957805 9.64783,2.076839 9.14005,2.188564 8.63227,2.289579 8.12449,2.37615 7.61671,2.44435 7.6167,2.67627 7.10893,2.72774 7.10893,2.97026 6.60115,2.99324 6.60114,3.23637 6.60115,3.4946 6.60115,3.76542 6.09336,3.72323 6.60115,4.3026 6.60114,4.5731 7.10893,5.19807 8.63227,6.60452 17.77232,13.70575 5.58558,3.95794 4.57003,2.95616 4.06224,2.3449 3.55447,1.78731 3.04668,1.307 3.04668,1.07772 3.04668,0.83087 3.04669,0.56997 2.5389,0.2684 2.5389,0.077 2.53891,-0.11541 2.5389,-0.30636 3.04668,-0.61426 3.04669,-0.87309 3.04668,-1.11724 3.04668,-1.34329 3.55446,-1.82508 3.55447,-2.06841 4.06224,-2.61342 5.07781,-3.55857 6.09336,-4.56102 11.67895,-9.09593 10.15561,-7.77507 7.61671,-5.5388 6.60115,-4.53266 6.60115,-4.25984 6.60114,-3.97955 6.60115,-3.70201 6.60115,-3.43377 6.60114,-3.17886 6.60115,-2.93943 7.10893,-2.91656 7.10892,-2.67842 7.61671,-2.62807 8.12449,-2.55312 8.12449,-2.32022 8.63227,-2.236354 9.14004,-2.138418 9.64783,-2.030019 10.15561,-1.914442 11.17118,-1.875039 11.67895,-1.735162 12.69451,-1.660612 13.71007,-1.567231 13.2023,-1.319255 v 0" /></g></g><g
       id="g280"><g
         clip-path="url(#clipPath286)"
         id="g282"><path
           id="path288"
           style="fill:none;stroke:#2ca02c;stroke-width:1.5;stroke-linecap:square;stroke-linejoin:round;stroke-miterlimit:10;stroke-dasharray:none;stroke-opacity:1"
           d="m 84.25104,83.221163 18.2801,1.487131 16.75676,1.58285 15.74119,1.708479 14.72563,1.81965 14.21786,1.984787 13.20229,2.06398 12.69451,2.201351 12.69452,2.425335 12.69451,2.653894 13.20229,2.99518 14.21786,3.46161 19.80344,5.08242 19.80344,5.02345 10.66339,2.46859 8.63227,1.77011 7.61671,1.33338 7.10892,1.00978 6.60115,0.70587 6.09336,0.43508 6.09337,0.21566 6.09337,-0.009 6.09336,-0.23425 6.09337,-0.45293 6.60114,-0.72388 6.60115,-0.94592 7.10893,-1.23724 8.12449,-1.64581 9.64783,-2.20006 12.18673,-3.02435 43.16134,-10.9124 13.20229,-3.00402 12.69452,-2.662986 12.69451,-2.434447 12.69451,-2.210127 13.2023,-2.072535 13.71007,-1.926054 14.21786,-1.775855 15.23341,-1.678589 16.24898,-1.565101 17.26453,-1.441281 3.55447,-0.271342 v 0" /></g></g><g
       id="g290"><g
         clip-path="url(#clipPath296)"
         id="g292"><path
           id="path298"
           style="fill:none;stroke:#d62728;stroke-width:1.5;stroke-linecap:square;stroke-linejoin:round;stroke-miterlimit:10;stroke-dasharray:none;stroke-opacity:1"
           d="m 84.25104,81.586628 23.3579,1.422393 21.83456,1.5486 21.32679,1.736534 20.819,1.918634 21.32678,2.18864 24.37346,2.733903 57.88698,6.611141 14.72563,1.380237 12.69452,0.9685 11.67895,0.66461 10.66339,0.38951 10.66339,0.16515 10.66339,-0.0663 10.66339,-0.29484 11.17117,-0.54035 11.67895,-0.79227 12.69452,-1.08316 15.23341,-1.532657 20.31122,-2.288333 57.3792,-6.586814 21.83456,-2.211578 20.819,-1.886206 20.819,-1.66605 21.83457,-1.522799 20.819,-1.256525 v 0" /></g></g><g
       id="g300"><g
         clip-path="url(#clipPath306)"
         id="g302"><path
           id="path308"
           style="fill:none;stroke:#9467bd;stroke-width:1.5;stroke-linecap:square;stroke-linejoin:round;stroke-miterlimit:10;stroke-dasharray:none;stroke-opacity:1"
           d="m 84.25104,79.998409 31.48239,1.368054 31.48239,1.594006 34.0213,1.952409 90.89271,5.370334 19.80344,0.845767 17.77231,0.539321 16.75676,0.282588 16.24898,0.04639 16.24897,-0.180829 16.75676,-0.412344 18.2801,-0.680303 20.819,-1.007833 26.91237,-1.544446 94.44717,-5.616997 31.48239,-1.539775 23.86569,-1.016339 v 0" /></g></g><g
       id="g310"><g
         clip-path="url(#clipPath316)"
         id="g312"><path
           id="path318"
           style="fill:none;stroke:#8c564b;stroke-width:1.5;stroke-linecap:square;stroke-linejoin:round;stroke-miterlimit:10;stroke-dasharray:none;stroke-opacity:1"
           d="m 84.25104,78.604693 44.68468,1.347088 54.33252,1.877636 66.01146,2.255565 30.46683,0.807236 25.38903,0.456797 23.3579,0.204086 22.85013,-0.01949 23.3579,-0.242135 25.38903,-0.492334 28.94348,-0.791313 39.60688,-1.325511 96.98608,-3.32354 25.89681,-0.754086 v 0" /></g></g><g
       id="g320"><path
         id="path322"
         style="fill:none;stroke:#000000;stroke-width:0.80000001;stroke-linecap:square;stroke-linejoin:miter;stroke-miterlimit:10;stroke-dasharray:none;stroke-opacity:1"
         d="m 58.887403,58.83742 v 434.88" /><path
         id="path324"
         style="fill:none;stroke:#000000;stroke-width:0.80000001;stroke-linecap:square;stroke-linejoin:miter;stroke-miterlimit:10;stroke-dasharray:none;stroke-opacity:1"
         d="m 616.8874,58.83742 v 434.88" /><path
         id="path326"
         style="fill:none;stroke:#000000;stroke-width:0.80000001;stroke-linecap:square;stroke-linejoin:miter;stroke-miterlimit:10;stroke-dasharray:none;stroke-opacity:1"
         d="M 58.887403,58.83742 H 616.8874" /><path
         id="path328"
         style="fill:none;stroke:#000000;stroke-width:0.80000001;stroke-linecap:square;stroke-linejoin:miter;stroke-miterlimit:10;stroke-dasharray:none;stroke-opacity:1"
         d="M 58.887403,493.71742 H 616.8874" /><path
         id="path330"
         style="fill:#ffffff;fill-opacity:0.8;fill-rule:nonzero;stroke:#cccccc;stroke-width:1;stroke-linecap:butt;stroke-linejoin:miter;stroke-miterlimit:10;stroke-dasharray:none;stroke-opacity:0.8"
         d="M 496.77916,337.51596 H 605.6874 c 2.13334,0 3.2,1.06667 3.2,3.2 v 141.80146 c 0,2.13333 -1.06666,3.2 -3.2,3.2 H 496.77916 c -2.13334,0 -3.2,-1.06667 -3.2,-3.2 V 340.71596 c 0,-2.13333 1.06666,-3.2 3.2,-3.2 z" /><path
         id="path332"
         style="fill:none;stroke:#1f77b4;stroke-width:1.5;stroke-linecap:square;stroke-linejoin:round;stroke-miterlimit:10;stroke-dasharray:none;stroke-opacity:1"
         d="m 499.97916,473.51224 h 32" /><text
         id="text336"
         style="font-style:italic;font-variant:normal;font-size:15.94022369px;font-family:URWPalladioL-Ital;-inkscape-font-specification:URWPalladioL-Ital;writing-mode:lr-tb;fill:#000000;fill-opacity:1;fill-rule:nonzero;stroke:none"
         transform="matrix(1,0,0,-1,544.77916,470.70286)"><tspan
           id="tspan334"
           y="0"
           x="0">u</tspan></text>
<text
         id="text340"
         style="font-variant:normal;font-size:12.11448288px;font-family:URWPalladioL-Roma;-inkscape-font-specification:URWPalladioL-Roma;writing-mode:lr-tb;fill:#000000;fill-opacity:1;fill-rule:nonzero;stroke:none"
         transform="matrix(1,0,0,-1,553.84118,467.91224)"><tspan
           id="tspan338"
           y="0"
           x="0">0</tspan></text>
<text
         id="text344"
         style="font-variant:normal;font-weight:normal;font-size:16.60971069px;font-family:CMR10;-inkscape-font-specification:CMR10;writing-mode:lr-tb;fill:#000000;fill-opacity:1;fill-rule:nonzero;stroke:none"
         transform="matrix(1,0,0,-1,565.02363,470.70286)"><tspan
           id="tspan342"
           y="0"
           x="0">=</tspan></text>
<text
         id="text348"
         style="font-variant:normal;font-size:15.94022369px;font-family:URWPalladioL-Roma;-inkscape-font-specification:URWPalladioL-Roma;writing-mode:lr-tb;fill:#000000;fill-opacity:1;fill-rule:nonzero;stroke:none"
         transform="matrix(1,0,0,-1,582.56212,470.70286)"><tspan
           id="tspan346"
           y="0"
           x="0 7.9701118 11.955168">0.1</tspan></text>
<path
         id="path350"
         style="fill:none;stroke:#ff7f0e;stroke-width:1.5;stroke-linecap:square;stroke-linejoin:round;stroke-miterlimit:10;stroke-dasharray:none;stroke-opacity:1"
         d="m 499.97916,449.61199 h 32" /><text
         id="text354"
         style="font-style:italic;font-variant:normal;font-size:15.94022369px;font-family:URWPalladioL-Ital;-inkscape-font-specification:URWPalladioL-Ital;writing-mode:lr-tb;fill:#000000;fill-opacity:1;fill-rule:nonzero;stroke:none"
         transform="matrix(1,0,0,-1,544.77916,446.80262)"><tspan
           id="tspan352"
           y="0"
           x="0">u</tspan></text>
<text
         id="text358"
         style="font-variant:normal;font-size:12.11448288px;font-family:URWPalladioL-Roma;-inkscape-font-specification:URWPalladioL-Roma;writing-mode:lr-tb;fill:#000000;fill-opacity:1;fill-rule:nonzero;stroke:none"
         transform="matrix(1,0,0,-1,553.84118,444.01199)"><tspan
           id="tspan356"
           y="0"
           x="0">0</tspan></text>
<text
         id="text362"
         style="font-variant:normal;font-weight:normal;font-size:16.60971069px;font-family:CMR10;-inkscape-font-specification:CMR10;writing-mode:lr-tb;fill:#000000;fill-opacity:1;fill-rule:nonzero;stroke:none"
         transform="matrix(1,0,0,-1,565.02363,446.80262)"><tspan
           id="tspan360"
           y="0"
           x="0">=</tspan></text>
<text
         id="text366"
         style="font-variant:normal;font-size:15.94022369px;font-family:URWPalladioL-Roma;-inkscape-font-specification:URWPalladioL-Roma;writing-mode:lr-tb;fill:#000000;fill-opacity:1;fill-rule:nonzero;stroke:none"
         transform="matrix(1,0,0,-1,582.56212,446.80262)"><tspan
           id="tspan364"
           y="0"
           x="0 7.9701118 11.955168">0.3</tspan></text>
<path
         id="path368"
         style="fill:none;stroke:#2ca02c;stroke-width:1.5;stroke-linecap:square;stroke-linejoin:round;stroke-miterlimit:10;stroke-dasharray:none;stroke-opacity:1"
         d="m 499.97916,425.71175 h 32" /><text
         id="text372"
         style="font-style:italic;font-variant:normal;font-size:15.94022369px;font-family:URWPalladioL-Ital;-inkscape-font-specification:URWPalladioL-Ital;writing-mode:lr-tb;fill:#000000;fill-opacity:1;fill-rule:nonzero;stroke:none"
         transform="matrix(1,0,0,-1,544.77916,422.90237)"><tspan
           id="tspan370"
           y="0"
           x="0">u</tspan></text>
<text
         id="text376"
         style="font-variant:normal;font-size:12.11448288px;font-family:URWPalladioL-Roma;-inkscape-font-specification:URWPalladioL-Roma;writing-mode:lr-tb;fill:#000000;fill-opacity:1;fill-rule:nonzero;stroke:none"
         transform="matrix(1,0,0,-1,553.84118,420.11175)"><tspan
           id="tspan374"
           y="0"
           x="0">0</tspan></text>
<text
         id="text380"
         style="font-variant:normal;font-weight:normal;font-size:16.60971069px;font-family:CMR10;-inkscape-font-specification:CMR10;writing-mode:lr-tb;fill:#000000;fill-opacity:1;fill-rule:nonzero;stroke:none"
         transform="matrix(1,0,0,-1,565.02363,422.90237)"><tspan
           id="tspan378"
           y="0"
           x="0">=</tspan></text>
<text
         id="text384"
         style="font-variant:normal;font-size:15.94022369px;font-family:URWPalladioL-Roma;-inkscape-font-specification:URWPalladioL-Roma;writing-mode:lr-tb;fill:#000000;fill-opacity:1;fill-rule:nonzero;stroke:none"
         transform="matrix(1,0,0,-1,582.56212,422.90237)"><tspan
           id="tspan382"
           y="0"
           x="0 7.9701118 11.955168">0.5</tspan></text>
<path
         id="path386"
         style="fill:none;stroke:#d62728;stroke-width:1.5;stroke-linecap:square;stroke-linejoin:round;stroke-miterlimit:10;stroke-dasharray:none;stroke-opacity:1"
         d="m 499.97916,401.81151 h 32" /><text
         id="text390"
         style="font-style:italic;font-variant:normal;font-size:15.94022369px;font-family:URWPalladioL-Ital;-inkscape-font-specification:URWPalladioL-Ital;writing-mode:lr-tb;fill:#000000;fill-opacity:1;fill-rule:nonzero;stroke:none"
         transform="matrix(1,0,0,-1,544.77916,399.00213)"><tspan
           id="tspan388"
           y="0"
           x="0">u</tspan></text>
<text
         id="text394"
         style="font-variant:normal;font-size:12.11448288px;font-family:URWPalladioL-Roma;-inkscape-font-specification:URWPalladioL-Roma;writing-mode:lr-tb;fill:#000000;fill-opacity:1;fill-rule:nonzero;stroke:none"
         transform="matrix(1,0,0,-1,553.84118,396.21151)"><tspan
           id="tspan392"
           y="0"
           x="0">0</tspan></text>
<text
         id="text398"
         style="font-variant:normal;font-weight:normal;font-size:16.60971069px;font-family:CMR10;-inkscape-font-specification:CMR10;writing-mode:lr-tb;fill:#000000;fill-opacity:1;fill-rule:nonzero;stroke:none"
         transform="matrix(1,0,0,-1,565.02363,399.00213)"><tspan
           id="tspan396"
           y="0"
           x="0">=</tspan></text>
<text
         id="text402"
         style="font-variant:normal;font-size:15.94022369px;font-family:URWPalladioL-Roma;-inkscape-font-specification:URWPalladioL-Roma;writing-mode:lr-tb;fill:#000000;fill-opacity:1;fill-rule:nonzero;stroke:none"
         transform="matrix(1,0,0,-1,582.56212,399.00213)"><tspan
           id="tspan400"
           y="0"
           x="0 7.9701118 11.955168">0.7</tspan></text>
<path
         id="path404"
         style="fill:none;stroke:#9467bd;stroke-width:1.5;stroke-linecap:square;stroke-linejoin:round;stroke-miterlimit:10;stroke-dasharray:none;stroke-opacity:1"
         d="m 499.97916,377.91126 h 32" /><text
         id="text408"
         style="font-style:italic;font-variant:normal;font-size:15.94022369px;font-family:URWPalladioL-Ital;-inkscape-font-specification:URWPalladioL-Ital;writing-mode:lr-tb;fill:#000000;fill-opacity:1;fill-rule:nonzero;stroke:none"
         transform="matrix(1,0,0,-1,544.77916,375.10188)"><tspan
           id="tspan406"
           y="0"
           x="0">u</tspan></text>
<text
         id="text412"
         style="font-variant:normal;font-size:12.11448288px;font-family:URWPalladioL-Roma;-inkscape-font-specification:URWPalladioL-Roma;writing-mode:lr-tb;fill:#000000;fill-opacity:1;fill-rule:nonzero;stroke:none"
         transform="matrix(1,0,0,-1,553.84118,372.31126)"><tspan
           id="tspan410"
           y="0"
           x="0">0</tspan></text>
<text
         id="text416"
         style="font-variant:normal;font-weight:normal;font-size:16.60971069px;font-family:CMR10;-inkscape-font-specification:CMR10;writing-mode:lr-tb;fill:#000000;fill-opacity:1;fill-rule:nonzero;stroke:none"
         transform="matrix(1,0,0,-1,565.02363,375.10188)"><tspan
           id="tspan414"
           y="0"
           x="0">=</tspan></text>
<text
         id="text420"
         style="font-variant:normal;font-size:15.94022369px;font-family:URWPalladioL-Roma;-inkscape-font-specification:URWPalladioL-Roma;writing-mode:lr-tb;fill:#000000;fill-opacity:1;fill-rule:nonzero;stroke:none"
         transform="matrix(1,0,0,-1,582.56212,375.10188)"><tspan
           id="tspan418"
           y="0"
           x="0 7.9701118 11.955168">0.9</tspan></text>
<path
         id="path422"
         style="fill:none;stroke:#8c564b;stroke-width:1.5;stroke-linecap:square;stroke-linejoin:round;stroke-miterlimit:10;stroke-dasharray:none;stroke-opacity:1"
         d="m 499.97916,354.01102 h 32" /><text
         id="text426"
         style="font-style:italic;font-variant:normal;font-size:15.94022369px;font-family:URWPalladioL-Ital;-inkscape-font-specification:URWPalladioL-Ital;writing-mode:lr-tb;fill:#000000;fill-opacity:1;fill-rule:nonzero;stroke:none"
         transform="matrix(1,0,0,-1,544.77916,351.20164)"><tspan
           id="tspan424"
           y="0"
           x="0">u</tspan></text>
<text
         id="text430"
         style="font-variant:normal;font-size:12.11448288px;font-family:URWPalladioL-Roma;-inkscape-font-specification:URWPalladioL-Roma;writing-mode:lr-tb;fill:#000000;fill-opacity:1;fill-rule:nonzero;stroke:none"
         transform="matrix(1,0,0,-1,553.84118,348.41102)"><tspan
           id="tspan428"
           y="0"
           x="0">0</tspan></text>
<text
         id="text434"
         style="font-variant:normal;font-weight:normal;font-size:16.60971069px;font-family:CMR10;-inkscape-font-specification:CMR10;writing-mode:lr-tb;fill:#000000;fill-opacity:1;fill-rule:nonzero;stroke:none"
         transform="matrix(1,0,0,-1,565.02363,351.20164)"><tspan
           id="tspan432"
           y="0"
           x="0">=</tspan></text>
<text
         id="text438"
         style="font-variant:normal;font-size:15.94022369px;font-family:URWPalladioL-Roma;-inkscape-font-specification:URWPalladioL-Roma;writing-mode:lr-tb;fill:#000000;fill-opacity:1;fill-rule:nonzero;stroke:none"
         transform="matrix(1,0,0,-1,582.56212,351.20164)"><tspan
           id="tspan436"
           y="0"
           x="0 7.9701118 11.955168">1.1</tspan></text>
</g><g
       id="g440"><g
         clip-path="url(#clipPath446)"
         id="g442"><path
           id="path448"
           style="fill:#000000;fill-opacity:1;fill-rule:nonzero;stroke:#000000;stroke-width:1;stroke-linecap:butt;stroke-linejoin:round;stroke-miterlimit:10;stroke-dasharray:none;stroke-opacity:1"
           d="m 192.0874,363.99742 c 0.79561,0 1.55874,0.3161 2.12132,0.87868 0.56258,0.56258 0.87868,1.32571 0.87868,2.12132 0,0.79561 -0.3161,1.55874 -0.87868,2.12132 -0.56258,0.56258 -1.32571,0.87868 -2.12132,0.87868 -0.79561,0 -1.55874,-0.3161 -2.12132,-0.87868 -0.56258,-0.56258 -0.87868,-1.32571 -0.87868,-2.12132 0,-0.79561 0.3161,-1.55874 0.87868,-2.12132 0.56258,-0.56258 1.32571,-0.87868 2.12132,-0.87868 z" /></g></g><g
       id="g450"><g
         clip-path="url(#clipPath456)"
         id="g452"><path
           id="path458"
           style="fill:#ffffff;fill-opacity:1;fill-rule:nonzero;stroke:#000000;stroke-width:1;stroke-linecap:butt;stroke-linejoin:miter;stroke-miterlimit:10;stroke-dasharray:3.7, 1.6;stroke-dashoffset:0;stroke-opacity:1"
           d="m 192.0874,290.19742 c 20.3676,0 39.90374,8.09213 54.3058,22.4942 14.40207,14.40207 22.4942,33.9382 22.4942,54.3058 0,20.3676 -8.09213,39.90373 -22.4942,54.3058 -14.40206,14.40207 -33.9382,22.4942 -54.3058,22.4942 -20.3676,0 -39.90373,-8.09213 -54.3058,-22.4942 -14.40206,-14.40207 -22.4942,-33.9382 -22.4942,-54.3058 0,-20.3676 8.09214,-39.90373 22.4942,-54.3058 14.40207,-14.40207 33.9382,-22.4942 54.3058,-22.4942 z" /></g></g><g
       id="g460"><g
         clip-path="url(#clipPath466)"
         id="g462"><path
           id="path468"
           style="fill:#000000;fill-opacity:1;fill-rule:nonzero;stroke:none"
           d="m 192.0874,364.69342 c 0.61103,0 1.19711,0.24276 1.62918,0.67483 0.43206,0.43206 0.67482,1.01814 0.67482,1.62917 0,0.61103 -0.24276,1.19711 -0.67482,1.62917 -0.43207,0.43207 -1.01815,0.67483 -1.62918,0.67483 -0.61103,0 -1.19711,-0.24276 -1.62917,-0.67483 -0.43206,-0.43206 -0.67483,-1.01814 -0.67483,-1.62917 0,-0.61103 0.24277,-1.19711 0.67483,-1.62917 0.43206,-0.43207 1.01814,-0.67483 1.62917,-0.67483 z" /></g></g><g
       id="g470"><g
         clip-path="url(#clipPath476)"
         id="g472"><path
           id="path478"
           style="fill:none;stroke:#000000;stroke-width:1;stroke-linecap:butt;stroke-linejoin:round;stroke-miterlimit:10;stroke-dasharray:3.7, 1.6;stroke-dashoffset:0;stroke-opacity:1"
           d="m 192.0874,366.99742 1.23821,1.05247 1.2382,1.05248 1.23821,1.05247 1.2382,1.05247 1.2382,1.05248 1.23821,1.05247 1.2382,1.05247 1.23821,1.05248 1.2382,1.05247 1.2382,1.05247 1.23821,1.05248 1.2382,1.05247 1.23821,1.05247 1.2382,1.05248 1.2382,1.05247 1.23821,1.05247 1.2382,1.05248 1.23821,1.05247 1.2382,1.05248 1.23821,1.05247 1.2382,1.05247 1.2382,1.05248 1.23821,1.05247 1.2382,1.05247 1.2382,1.05248 1.23821,1.05247 1.2382,1.05247 1.23821,1.05248 1.2382,1.05247 1.23821,1.05247 1.2382,1.05248 1.2382,1.05247 1.23821,1.05247 1.2382,1.05248 1.23821,1.05247 1.2382,1.05247 1.2382,1.05248 1.23821,1.05247 1.2382,1.05248 1.23821,1.05247 1.2382,1.05247 1.2382,1.05248 1.23821,1.05247 1.2382,1.05247 1.23821,1.05248 1.2382,1.05247 1.2382,1.05247 1.23821,1.05248 1.2382,1.05247" /></g></g><g
       id="g480"><g
         clip-path="url(#clipPath486)"
         id="g482"><path
           id="path488"
           style="fill:none;stroke:#1f77b4;stroke-width:1.5;stroke-linecap:square;stroke-linejoin:round;stroke-miterlimit:10;stroke-dasharray:none;stroke-opacity:1"
           d="M 99.927403,359.31742 H 284.2474" /></g></g><g
       id="g490"><g
         clip-path="url(#clipPath496)"
         id="g492"><path
           id="path498"
           style="fill:none;stroke:#ff7f0e;stroke-width:1.5;stroke-linecap:square;stroke-linejoin:round;stroke-miterlimit:10;stroke-dasharray:none;stroke-opacity:1"
           d="M 99.927403,343.95742 H 284.2474" /></g></g><g
       id="g500"><g
         clip-path="url(#clipPath506)"
         id="g502"><path
           id="path508"
           style="fill:none;stroke:#2ca02c;stroke-width:1.5;stroke-linecap:square;stroke-linejoin:round;stroke-miterlimit:10;stroke-dasharray:none;stroke-opacity:1"
           d="M 99.927403,328.59742 H 284.2474" /></g></g><g
       id="g510"><g
         clip-path="url(#clipPath516)"
         id="g512"><path
           id="path518"
           style="fill:none;stroke:#d62728;stroke-width:1.5;stroke-linecap:square;stroke-linejoin:round;stroke-miterlimit:10;stroke-dasharray:none;stroke-opacity:1"
           d="M 99.927403,313.23742 H 284.2474" /></g></g><g
       id="g520"><g
         clip-path="url(#clipPath526)"
         id="g522"><path
           id="path528"
           style="fill:none;stroke:#9467bd;stroke-width:1.5;stroke-linecap:square;stroke-linejoin:round;stroke-miterlimit:10;stroke-dasharray:none;stroke-opacity:1"
           d="M 99.927403,297.87742 H 284.2474" /></g></g><g
       id="g530"><g
         clip-path="url(#clipPath536)"
         id="g532"><path
           id="path538"
           style="fill:none;stroke:#8c564b;stroke-width:1.5;stroke-linecap:square;stroke-linejoin:round;stroke-miterlimit:10;stroke-dasharray:none;stroke-opacity:1"
           d="M 99.927403,282.51742 H 284.2474" /></g></g><g
       id="g540"><text
         id="text544"
         style="font-variant:normal;font-size:15.94022369px;font-family:URWPalladioL-Roma;-inkscape-font-specification:URWPalladioL-Roma;writing-mode:lr-tb;fill:#000000;fill-opacity:1;fill-rule:nonzero;stroke:none"
         transform="matrix(1,0,0,-1,130.6474,267.15742)"><tspan
           id="tspan542"
           y="0"
           x="0 6.7427149 15.430137 25.026152 31.019789 38.081306 49.685791 54.866364 61.146812 69.11692 72.830994 80.450424 87.51194 92.692513 101.37994 107.66039">sourcetrajectory</tspan></text>
<text
         id="text548"
         style="font-style:italic;font-variant:normal;font-size:15.94022369px;font-family:PazoMath;-inkscape-font-specification:PazoMath-Italic;writing-mode:lr-tb;fill:#000000;fill-opacity:1;fill-rule:nonzero;stroke:none"
         transform="matrix(1,0,0,-1,253.5274,423.65114)"><tspan
           id="tspan546"
           y="0"
           x="0">θ</tspan></text>
<text
         id="text552"
         style="font-style:italic;font-variant:normal;font-size:12.11448288px;font-family:URWPalladioL-Ital;-inkscape-font-specification:URWPalladioL-Ital;writing-mode:lr-tb;fill:#000000;fill-opacity:1;fill-rule:nonzero;stroke:none"
         transform="matrix(1,0,0,-1,261.13726,420.75742)"><tspan
           id="tspan550"
           y="0"
           x="0">E</tspan></text>
<text
         id="text556"
         style="font-variant:normal;font-size:15.94022369px;font-family:URWPalladioL-Roma;-inkscape-font-specification:URWPalladioL-Roma;writing-mode:lr-tb;fill:#000000;fill-opacity:1;fill-rule:nonzero;stroke:none"
         transform="matrix(1,0,0,-1,176.7274,374.67742)"><tspan
           id="tspan554"
           y="0"
           x="0">L</tspan></text>
</g></g></svg>